<svg version="1.1" xmlns="http://www.w3.org/2000/svg" width="126.5" height="119.6" viewBox="0,0,126.5,119.6">
  <defs><linearGradient x1="100.74" y1="20.44" x2="100.74" y2="144.1" gradientUnits="userSpaceOnUse" id="color-1"><stop offset="0" stop-color="#fdfeff"></stop><stop offset="1" stop-color="#ecf0f5"></stop></linearGradient></defs>
  <g fill="none" fill-rule="nonzero" stroke="none" stroke-width="none" stroke-linecap="butt" stroke-linejoin="miter" stroke-miterlimit="10" stroke-dasharray="" stroke-dashoffset="0" font-family="none" font-weight="none" font-size="none" text-anchor="none" style="mix-blend-mode: normal"><g fill="#eaeef9" stroke="none" stroke-width="1"><g><path d="M122.1,68.8c0,14.2 -5.8,27 -15.1,36.2c-9.1,9.1 -21.7,14.6 -35.6,14.6c-13.8,0 -26.4,-5.6 -35.6,-14.6c-9.3,-9.2 -15.1,-22 -15.1,-36.2c0,-28.1 22.7,-50.8 50.7,-50.8c28,0 50.7,22.8 50.7,50.8z"></path></g><g><path d="M121.8,31.4c0,2.26 -1.84,4.1 -4.1,4.1c-2.26,0 -4.1,-1.84 -4.1,-4.1c0,-2.26 1.84,-4.1 4.1,-4.1c2.26,0 4.1,1.84 4.1,4.1z"></path></g><g><path d="M126.5,16.7c0,1.55 -1.25,2.8 -2.8,2.8c-1.55,0 -2.8,-1.25 -2.8,-2.8c0,-1.55 1.25,-2.8 2.8,-2.8c1.55,0 2.8,1.25 2.8,2.8z"></path></g><g><path d="M25.1,32.6c0,1.55 -1.25,2.8 -2.8,2.8c-1.55,0 -2.8,-1.25 -2.8,-2.8c0,-1.55 1.25,-2.8 2.8,-2.8c1.55,0 2.8,1.25 2.8,2.8z"></path></g><g><path d="M10.4,84.2c0,2.87 -2.33,5.2 -5.2,5.2c-2.87,0 -5.2,-2.33 -5.2,-5.2c0,-2.87 2.33,-5.2 5.2,-5.2c2.87,0 5.2,2.33 5.2,5.2z"></path></g></g><g fill="url(#color-1)" stroke="none" stroke-width="1"><path d="M107.53,45.51l0.8,64.4c0,2.2 -1.8,3.9 -4,3.9h-62.8c-2.2,0 -4,-1.8 -4,-3.9v-82.8c0,-2.2 1.8,-3.9 4,-3.9h45.5z"></path></g><g fill="#d5ddea" stroke="none" stroke-width="1"><path d="M70.23,36.71h-22.1c-0.7,0 -1.3,-0.6 -1.3,-1.3c0,-0.7 0.6,-1.3 1.3,-1.3h22.1c0.7,0 1.3,0.6 1.3,1.3c0,0.7 -0.6,1.3 -1.3,1.3z"></path></g><g fill="#d5ddea" stroke="none" stroke-width="1"><path d="M59.73,43.91h-11.6c-0.7,0 -1.3,-0.6 -1.3,-1.3c0,-0.7 0.6,-1.3 1.3,-1.3h11.5c0.7,0 1.3,0.6 1.3,1.3c0,0.7 -0.6,1.3 -1.2,1.3z"></path></g><g fill="#d5ddea" stroke="none" stroke-width="1"><path d="M87.03,23.21v17.8c0,2.5 2.2,4.5 4.7,4.5h15.8z"></path></g><g fill="#eaeef9" stroke="none" stroke-width="1"><path d="M61.51,19.71l-4.75,16.76l12,6.24l-0.63,19.24l11.36,-24.85l-5.28,-4.22l6.81,-10.92z"></path></g><g fill="none" stroke="#a2abbe" stroke-width="2"><path d="M57.2,20.41l8.52,-8.84"></path></g><g fill="none" stroke="#a2abbe" stroke-width="2"><path d="M64.68,14.43l2.56,-4.68"></path></g><g fill="none" stroke="#a2abbe" stroke-width="2"><path d="M75.91,17.41l5.62,-3.4"></path></g><g fill="#989fb0" stroke="none" stroke-width="1"><path d="M59.57,89.38c0.42,0 0.76,-0.17 1.1,-0.42c3.28,-3.28 7.64,-5.04 12.26,-5.04c4.62,0 8.98,1.76 12.26,5.04c0.59,0.59 1.6,0.59 2.19,0c0.59,-0.59 0.59,-1.6 0,-2.19c-3.86,-3.78 -8.99,-5.88 -14.45,-5.88c-5.46,0 -10.59,2.1 -14.45,5.88c-0.59,0.59 -0.59,1.6 0,2.19c0.34,0.25 0.67,0.42 1.09,0.42"></path></g><g fill="#989fb0" stroke="none" stroke-width="1"><path d="M62.68,69.04l2.02,2.02c0.34,0.34 0.67,0.42 1.09,0.42c0.42,0 0.75,-0.17 1.09,-0.42c0.59,-0.59 0.59,-1.59 0,-2.18l-2.02,-2.02l2.02,-2.02c0.59,-0.59 0.59,-1.59 0,-2.18c-0.59,-0.59 -1.59,-0.59 -2.18,0l-2.02,2.02l-2.02,-2.02c-0.59,-0.59 -1.59,-0.59 -2.18,0c-0.59,0.59 -0.59,1.59 0,2.18l2.02,2.02l-2.02,2.02c-0.59,0.59 -0.59,1.59 0,2.18c0.34,0.34 0.67,0.42 1.09,0.42c0.42,0 0.75,-0.17 1.09,-0.42l2.02,-2.02"></path></g><g fill="#989fb0" stroke="none" stroke-width="1"><path d="M78.89,62.66c-0.59,0.59 -0.59,1.59 0,2.18l2.02,2.02l-2.02,2.02c-0.59,0.59 -0.59,1.59 0,2.18c0.34,0.34 0.67,0.42 1.09,0.42c0.42,0 0.75,-0.17 1.09,-0.42l2.02,-2.02l2.02,2.02c0.34,0.34 0.67,0.42 1.09,0.42c0.42,0 0.75,-0.17 1.09,-0.42c0.59,-0.59 0.59,-1.59 0,-2.18l-2.02,-2.02l2.02,-2.02c0.59,-0.59 0.59,-1.59 0,-2.18c-0.59,-0.59 -1.59,-0.59 -2.18,0l-2.02,2.02l-2.02,-2.02c-0.59,-0.59 -1.59,-0.59 -2.18,0"></path></g></g>
</svg>
