<svg version="1.1" xmlns="http://www.w3.org/2000/svg" width="126.5" height="105.89" viewBox="0,0,126.5,105.89"><g fill="none" fill-rule="nonzero" stroke="none" stroke-width="none" stroke-linecap="butt" stroke-linejoin="none" stroke-miterlimit="10" stroke-dasharray="" stroke-dashoffset="0" font-family="none" font-weight="none" font-size="none" text-anchor="none" style="mix-blend-mode: normal"><g fill="#f1f3f9" stroke-linejoin="miter"><g stroke="#d6dce8" stroke-width="2"><path d="M122.1,54.9c0,14.2 -5.8,27 -15.1,36.2c-9.1,9.1 -21.7,14.6 -35.6,14.6c-13.8,0 -26.4,-5.6 -35.6,-14.6c-9.3,-9.2 -15.1,-22 -15.1,-36.2c0,-28.1 22.7,-50.8 50.7,-50.8c28,0 50.7,22.8 50.7,50.8z"></path></g><g stroke="none" stroke-width="1"><path d="M121.8,17.5c0,2.26 -1.84,4.1 -4.1,4.1c-2.26,0 -4.1,-1.84 -4.1,-4.1c0,-2.26 1.84,-4.1 4.1,-4.1c2.26,0 4.1,1.84 4.1,4.1z"></path></g><g stroke="none" stroke-width="1"><path d="M126.5,2.8c0,1.55 -1.25,2.8 -2.8,2.8c-1.55,0 -2.8,-1.25 -2.8,-2.8c0,-1.55 1.25,-2.8 2.8,-2.8c1.55,0 2.8,1.25 2.8,2.8z"></path></g><g stroke="none" stroke-width="1"><path d="M25.1,18.7c0,1.55 -1.25,2.8 -2.8,2.8c-1.55,0 -2.8,-1.25 -2.8,-2.8c0,-1.55 1.25,-2.8 2.8,-2.8c1.55,0 2.8,1.25 2.8,2.8z"></path></g><g stroke="none" stroke-width="1"><path d="M10.4,70.3c0,2.87 -2.33,5.2 -5.2,5.2c-2.87,0 -5.2,-2.33 -5.2,-5.2c0,-2.87 2.33,-5.2 5.2,-5.2c2.87,0 5.2,2.33 5.2,5.2z"></path></g></g><g fill="#ffffff" stroke="#d6dce8" stroke-width="2" stroke-linejoin="round"><path d="M116.72,25.78v55.4c0,2.31 -1.85,4.13 -4.11,4.13h-83.45c-2.26,0 -4.14,-1.86 -4.14,-4.13v-55.4c0,-2.28 1.85,-4.13 4.14,-4.13h83.45c2.26,0 4.11,1.86 4.11,4.13z"></path></g><g fill="#d6dce8" stroke="none" stroke-width="1" stroke-linejoin="round"><path d="M116.72,25.78v6.2h-91.7v-6.2c0,-2.28 1.85,-4.13 4.14,-4.13h83.45c2.26,0 4.11,1.86 4.11,4.13z"></path></g><g fill="#aab2c5" stroke="none" stroke-width="1" stroke-linejoin="round"><path d="M32.34,26.79c0,0.86 -0.69,1.55 -1.55,1.55c-0.86,0 -1.55,-0.7 -1.55,-1.55c0,-0.86 0.69,-1.55 1.55,-1.55c0.86,0 1.55,0.7 1.55,1.55z"></path></g><g fill="#aab2c5" stroke="none" stroke-width="1" stroke-linejoin="round"><path d="M37.41,26.79c0,0.86 -0.69,1.55 -1.55,1.55c-0.86,0 -1.55,-0.7 -1.55,-1.55c0,-0.86 0.69,-1.55 1.55,-1.55c0.86,0 1.55,0.7 1.55,1.55z"></path></g><g fill="#aab2c5" stroke="none" stroke-width="1" stroke-linejoin="round"><path d="M42.44,26.79c0,0.86 -0.69,1.55 -1.55,1.55c-0.86,0 -1.55,-0.7 -1.55,-1.55c0,-0.86 0.69,-1.55 1.55,-1.55c0.86,0 1.55,0.7 1.55,1.55z"></path></g><g fill="none" stroke="#d5ddea" stroke-width="2" stroke-linejoin="round"><path d="M44.16,69.72h53.41"></path></g><g fill="none" stroke="#d5ddea" stroke-width="2" stroke-linejoin="round"><path d="M52.59,75.44h36.56"></path></g><g fill="#aab2c5" stroke="none" stroke-width="1" stroke-linejoin="miter"><g><path d="M79.83,56.69h7.74v2.96h3.51v-2.96h1.88v-3.06h-1.85v-10.51h-4.1l-7.18,10.03zM60.06,59.65v-2.96h1.88v-3.06h-1.85v-10.51h-4.11l-7.17,10.03v3.54h7.74v2.96zM70.75,45.96c1.76,0 3.51,1.78 3.51,5.43c0,3.65 -1.75,5.42 -3.51,5.42c-1.76,0 -3.51,-1.77 -3.51,-5.42zM87.54,47.22v6.38h-4.46zM56.55,47.22v6.38h-4.47zM63.7,51.36c0,5.33 3.3,8.62 7.05,8.62c3.78,0 7.06,-3.29 7.06,-8.62c0,-5.33 -3.28,-8.63 -7.06,-8.63z"></path></g></g><g fill="#d6dce8" stroke="#aab2c5" stroke-width="2" stroke-linejoin="miter"><g><path d="M112.66,97.55l-19.94,-19.93l4.57,-4.57l19.93,19.94z"></path></g><g><path d="M119.6,104.57l-15.3,-15.3c-1.28,-1.28 -1.28,-3.36 0,-4.64c1.28,-1.28 3.36,-1.28 4.64,0l15.3,15.3c1.28,1.28 1.28,3.36 0,4.64c-1.28,1.28 -3.36,1.28 -4.64,0z"></path></g><g><path d="M118.51,105.55l-19.68,-19.68c-0.46,-0.46 -0.46,-1.2 0,-1.67l5.03,-5.03c0.46,-0.46 1.2,-0.46 1.67,0l19.68,19.68c0.46,0.46 0.46,1.2 0,1.67l-5.03,5.03c-0.47,0.46 -1.21,0.46 -1.67,0z"></path></g><g><path d="M70.14,13.4c20.86,0 37.78,16.92 37.78,37.8c0,20.88 -16.92,37.79 -37.8,37.79c-20.86,0 -37.78,-16.93 -37.78,-37.79l8.67,-8.67c-0.79,2.74 -1.21,5.65 -1.21,8.65c0,17.01 13.58,30.81 30.34,30.81l30.34,-30.79c0,-17.01 -13.58,-30.81 -30.34,-30.81c-2.8,0 -5.52,0.39 -8.1,1.11zM41.01,42.53l21.03,-21.03c-10.11,2.83 -18.1,10.83 -21.03,21.03z"></path></g></g></g>
</svg>
